<svg xmlns="http://www.w3.org/2000/svg" viewBox="0 0 100 100">
  <defs>
    <linearGradient id="grad" x1="0%" y1="0%" x2="100%" y2="100%">
      <stop offset="0%" style="stop-color:#0ea5e9;stop-opacity:1" />
      <stop offset="50%" style="stop-color:#d946ef;stop-opacity:1" />
      <stop offset="100%" style="stop-color:#f97316;stop-opacity:1" />
    </linearGradient>
  </defs>
  <circle cx="50" cy="50" r="48" fill="#0f172a"/>
  <rect x="15" y="35" width="70" height="40" rx="6" fill="url(#grad)" opacity="0.9"/>
  <rect x="20" y="40" width="8" height="8" rx="1.5" fill="#0f172a" opacity="0.6"/>
  <rect x="31" y="40" width="8" height="8" rx="1.5" fill="#0f172a" opacity="0.6"/>
  <rect x="42" y="40" width="8" height="8" rx="1.5" fill="#0f172a" opacity="0.6"/>
  <rect x="53" y="40" width="8" height="8" rx="1.5" fill="#0f172a" opacity="0.6"/>
  <rect x="64" y="40" width="8" height="8" rx="1.5" fill="#0f172a" opacity="0.6"/>
  <rect x="75" y="40" width="8" height="8" rx="1.5" fill="#0f172a" opacity="0.6"/>
  <rect x="23" y="51" width="8" height="8" rx="1.5" fill="#0f172a" opacity="0.6"/>
  <rect x="34" y="51" width="8" height="8" rx="1.5" fill="#0f172a" opacity="0.6"/>
  <rect x="45" y="51" width="8" height="8" rx="1.5" fill="#0f172a" opacity="0.6"/>
  <rect x="56" y="51" width="8" height="8" rx="1.5" fill="#0f172a" opacity="0.6"/>
  <rect x="67" y="51" width="8" height="8" rx="1.5" fill="#0f172a" opacity="0.6"/>
  <rect x="30" y="62" width="40" height="8" rx="2" fill="#0f172a" opacity="0.6"/>
  <rect x="46" y="20" width="3" height="12" rx="1" fill="#10b981"/>
</svg>
